<svg width="16" height="16" viewBox="0 0 16 16" fill="none" xmlns="http://www.w3.org/2000/svg">
<rect width="16" height="16" rx="2" fill="#53AD6F"/>
<path fill-rule="evenodd" clip-rule="evenodd" d="M7.73333 3V3.12875L8.26667 3.12875V3H7.73333ZM7.73333 3.38625V3.64375H8.26667V3.38625L7.73333 3.38625ZM7.73333 3.90125V4.15875H8.26667V3.90125H7.73333ZM7.73333 4.41625V4.67375H8.26667V4.41625H7.73333ZM7.73333 4.93125V5.06V5.19233H8.26667V5.06V4.93125H7.73333ZM7.73333 5.457V5.72167H8.26667V5.457H8.21646L9.64013 4.03333H13V11.9951H9.64013V8.73078L8.14991 10.221H7.85009L6.35987 8.73078V11.9951H3V4.03333H6.35987L7.78354 5.457H7.73333ZM7.85009 10.221H7.73333V10.4857H8.26667V10.221H8.14991L8 10.3709L7.85009 10.221ZM7.78354 5.457H8.21646L8 5.67346L7.78354 5.457ZM7.73333 5.98633V6.251H8.26667V5.98633H7.73333ZM7.73333 6.51567V6.78033H8.26667V6.51567H7.73333ZM7.73333 7.045V7.30967H8.26667V7.045H7.73333ZM7.73333 7.57433V7.839H8.26667V7.57433H7.73333ZM7.73333 8.10367V8.36833H8.26667V8.10367H7.73333ZM7.73333 8.633L7.73333 8.89767H8.26667L8.26667 8.633H7.73333ZM7.73333 9.16233V9.427H8.26667V9.16233H7.73333ZM7.73333 9.69167V9.95633H8.26667V9.69167H7.73333ZM7.73333 10.7503V11.015H8.26667V10.7503H7.73333ZM7.73333 11.2797V11.5443H8.26667V11.2797H7.73333ZM7.73333 11.809V12.0737H8.26667V11.809H7.73333ZM7.73333 12.3383V12.603H8.26667V12.3383H7.73333ZM7.73333 12.8677V13H8.26667V12.8677H7.73333Z" fill="#091C3B"/>
</svg>
